<svg xmlns="http://www.w3.org/2000/svg" height="100.51" width="250" viewBox="0 0 250 100.51142">
<g transform="matrix(1.1106 0 0 1.1106 1.1784 1.1162)">
  <path fill="#008e6a" d="m215.1 38.6c-15.8-8.6-52.1-17.3-67.5-18.5l-11.6-0.8c-12.4-1-19.2-1.5-24.4-1.5s-12 0.5-24.4 1.5l-11.6 0.9c-15.3 1.1-51.7 9.8-67.4 18.4-7.4 4-8.2 6.9-8.2 16.4v24.2c0 2 0.3 4.8 2.4 7 2.5 2.5 5.7 2.5 9.5 2.5h199.5c3.7 0 7 0 9.5-2.5 2.2-2.2 2.4-5 2.4-7v-24.2c0-9.5-0.8-12.4-8.2-16.4"/>
  <path fill="#fff" d="m220.8 79.2c0 1.5-0.2 3.7-1.7 5.3-1.8 1.8-4.3 1.8-7.7 1.8h-199.5c-3.5 0-6 0-7.8-1.8-1.5-1.5-1.7-3.7-1.7-5.3v-24.2c0-9.2 0.8-10.9 6.9-14.2 15.5-8.4 51.3-17 66.5-18.2l11.6-0.9c12.3-0.9 19.1-1.5 24.2-1.5s11.9 0.5 24.2 1.5l11.6 0.9c15.2 1.1 51 9.7 66.5 18.2 6.1 3.3 6.9 5 6.9 14.2v24.2z"/>
  <path fill="#da102e" d="m111.6 0c-21.9 0-35.5 2.8992-35 5.1992l1 4.2012c-2.9 0-12.901 2.5996-12.901 2.5996l-1.199 0.4 0.69922 0.79883 5.5 5.6016-1.199 9.2-0.1 1.1 1.1-0.299c3.9-0.9 9.5-2.9004 13-2.9004 0 0 1.7992-0.0012 3.6992-0.20117 2.9-0.2-1.5996-2.8984-1.5996-2.8984-0.2-0.9 16.8-2.4008 27-2.3008 10.2 0 27.2 1.4 27.1 2.5 0 0-4.3996 2.6004-1.5996 2.9004 1.8 0.1 3.7012 0.19922 3.7012 0.19922 3.6 0 9.1 2.0004 13 2.9004l1.0996 0.30078-0.0996-1.1016-1.2012-9.3984 5.5-5.6016 0.70117-0.79883-1.2-0.4s-10-2.5996-12.9-2.5996l0.70117-3.7012c0.5-2.2-12.9-5.6992-34.8-5.6992zm25.801 28.199c-4.3 0-12.5 1.9016-12.5 12.102v29.799c0.2 6.5 6.8 12 12.5 12 5 0 12.299-2.2992 12.299-13.199v-28.6c0-9.7-7.9988-12.102-12.299-12.102zm-26.6 0.10156v8.5996c0-0.001 1.2 0.599 1.2 3.099v25c0 5.7-3.2996 5.6996-7.5996 3.0996v10.9c5.1 3.3 18 7.2 18-10v-28.199c0-2.5 1.1992-3.1016 1.1992-3.1016v-9.0996l-12.799-0.29883zm-19.9 0.699-15.099 1.4-5.701 39.2 0.099 0.4c0 2.5-1.199 3.1-1.199 3.1v7.4h11.6v-7.4004s-1.1992-0.59961-1.1992-3.0996v-2.4004h5.9004v2.4004c0 2.5-1.2012 3.0996-1.2012 3.0996v7.4004h12.9v-7.4s-1.199-0.6-1.199-3.1l-4.9004-41zm60.699 1.1992v10.602s1.4004 0.89844 1.4004 3.3984v25.9c0 2.5-1.4004 3.0996-1.4004 3.0996v7.5h11.4v-7.5s-1.1992-0.59961-1.1992-3.0996v-8.4004h4.0996v8.4004c0 2.5-1.2012 3.0996-1.2012 3.0996v7.5h11.801v-7.5996s-1.0996-0.59961-1.0996-3.0996l-0.0996-23c0-2.5 1.3984-3.4004 1.3984-3.4004v-8.0996l-11.799-2.8008v9.3008s1 0.59961 1 3.0996v8.0996h-4.0996v-8.0996c0-2.5 1.3984-3.4004 1.3984-3.4004v-9.5l-11.6-2zm-90.613 2.4824c-0.87969-0.0063-1.8121 0.06875-2.7871 0.21875 0 0-4.9996 0.69883-11.1 3.2988v7.4004s1.2012 1.0012 1.2012 2.7012v23.699c0 2.5-1.2012 3.0996-1.2012 3.0996v7.4004h11v-7.4004s-1.1992-0.59961-1.1992-3.0996v-2.5h5.1992c4.3-0.299 8-2.498 7.9-10.698v-14.5c0.1-4.4-1.4992-5.8012-2.6992-7.2012-1.5-1.65-3.6754-2.3992-6.3145-2.418zm117.41 2.918v8.4004s1.0996 0.90039 1.0996 3.4004v24c0.3 1.5-1.0996 1.6992-1.0996 1.6992h0.0996v7.7012h8.0996v-7.5s-0.90039 0.19922-0.90039-2.3008v-7l4.4004 16.699h7.7012v-27.799c0-2.5 1.3984-3.4004 1.3984-3.4004v-7.4004l-8.5996-2.9004v9.2012s1.0996 0.90039 1.0996 3.4004l-0.0996 7.3984-3.9-21.196-9.3-2.4zm-137.4 1.6-10.801 2.901-4.398 30.8c0 1.8-0.80078 2.1992-0.80078 2.1992v7.401h9.1992v-7.4004s-0.89844-0.39922-0.89844-2.1992v-1.8008h3.5v1.8008c0 1.8-0.80078 2.1992-0.80078 2.1992v7.4h9.5996v-7.4004h-0.09961s-0.90039-0.39922-0.90039-2.1992l-3.6-33.702zm96.449 2c1.075 0 2.1504 0.90117 2.1504 2.7012v26.1c0 3.3-4.2988 3.3-4.2988 0v-26.1c0-1.8 1.0734-2.7012 2.1484-2.7012zm-55.149 0.801l2.3984 20.199h-4.5996l2.201-20.199zm-25.201 1.4004h1.2012c0.5 0 2.2988 0.19922 2.2988 3.6992v9.8008c0 1.1-0.49883 3.7988-2.2988 3.7988h-1.2012v-17.299zm144.6 1.2988c-1.9 0-1.8996 2.7016-0.59961 3.1016 0.8 0.2 0.70039 0.5 0.40039 1l-0.80078 0.79883 0.60156 0.80078 1.5996-1.5996c1.8-1.8 0.99883-4.1016-1.2012-4.1016zm-182.75 2.016c-0.68125-0.0016-1.3984 0.06055-2.1484 0.18555 0 0-3.9016 1.2992-8.6016 3.1992v5.5c-1e-7 0 0.90039 0.7 0.90039 2v15.201c0 1.8-0.90039 2.2988-0.90039 2.2988v7.4004h8.6016v-7.5s-0.90039-0.50078-0.90039-2.3008v-1.7988h4c3.3-0.2 5.4004-3.2996 5.4004-7.0996v-10.102c0-2.4-0.40039-4.1992-1.4004-5.1992-1.2-1.2-2.9074-1.7805-4.9512-1.7852zm189.05 1.3359c-0.67969 0.0375-1.3043 0.15-1.9043 0.25-3.7 0.7-6.0996 5.0996-6.0996 11.1 0 4 1.6008 5.7992 2.8008 7.1992 0.9 1.1 2.7992 2.2012 4.1992 2.7012 1.5 0.5 3.4004 0.5 3.4004 3.5 0 4.8-3.4 4.099-3.4 2.199v-4.0996h-6.9004v8.2988c2.7 3.8 5.5004 4.6004 8.9004 4.4004 3.4-0.1 7.5-4.1988 7.5-7.7988v-6.9004c0-4.3-2.5008-5.5004-4.8008-6.9004s-4.7988-0.80078-4.7988-4.3008c0-2.8 3.4004-4 3.4004 2h6.0996v-7.5996c-3.825-3.6-6.3574-4.1613-8.3965-4.0488zm-172.6 3.0488 1.4004 14.701h-3.1016l1.7012-14.701zm-19.5 2.0996h0.90039c0.4 0 1.7988 0.20078 1.7988 2.8008v7.4004c0 0.8-0.39883 2.7988-1.7988 2.7988h-0.90039v-13z"/>
  <path fill="#008e6a" d="m111.6 18.9c12-0.2 28.3 1.7 29.2 2.9 0 0 3.1-14.6 3.3-15.3 0.3-1.2-14.1-4.8-32.5-4.8s-33 3.1-32.7 4.3c0.2 0.8 3.5 15.8 3.5 15.8 0.9-1.2 17.2-3.1 29.2-2.9m-30.8 5 1.3 0.5c-0.8 0.1-1.7 0.1-2.9 0.3-2.5 0.5-5.7 1.5-8.8 2.2l1.1-9.1-5.3-4.8s9.4-2.3 11.7-2.2l2.9 13.1zm61.6 0-1.3 0.5c0.8 0.1 1.7 0.1 3 0.3 2.4 0.5 5.7 1.5 8.8 2.2l-1.1-9.1 5.4-4.8s-9.4-2.3-11.7-2.2l-3.1 13.1z"/>
  <path fill="#fff" d="m85.6 17v-0.4l1.2-0.1-0.9-9.8-1.2 0.1v-0.4l7.1-0.6c3.3-0.3 4 1.2 4.1 2.7s-0.2 3.3-3.5 3.6l-2.1 0.2 0.4 3.9 1.3-0.2v0.4l-6.4 0.6zm4.6-5.2 0.6-0.1c0.7-0.1 1.7-1 1.6-2.2l-0.2-1.5c-0.1-0.7-1.1-1.7-2-1.6h-0.5l0.5 5.4zm7.5 4.1v-0.4l1.1-0.1-0.5-9.8-1.2 0.1v-0.4l6-0.4v0.4l-1.1 0.1 0.5 9.8 1.2-0.1v0.4m10.5-10.8v0.5l-4.9 9.8h0.9c1.4 0 3-1.1 3.5-3.7h0.5l-0.1 4.1-8.8 0.1v-0.6l4.8-9.7h-0.5c-1.9 0-3.2 1.6-3.6 3.4h-0.4l0.2-3.8 8.4-0.1zm11.8 0.4v0.5l-5.5 9.5h0.9c1.4 0.1 3-0.9 3.7-3.5h0.5l-0.3 4.1-8.8-0.4v-0.6l5.4-9.4h-0.5c-1.9-0.1-3.3 1.4-3.8 3.1h-0.5l0.4-3.7 8.5 0.4zm0.8 10.9v-0.4h0.4c0.5 0.1 0.9-0.8 1.3-1.4l4-8.3 2.3 0.1 2.7 10.6 0.8 0.1v0.4l-5.7-0.5v-0.4l1.1 0.1-0.8-3.2-3.1-0.3-0.8 1.5c-0.5 1.1 0 1.5 0.4 1.5h0.4v0.4l-3-0.2zm5-7.4-1.8 3.7 2.8 0.3-1-4z"/>
 </g>
</svg>
